<svg version="1.1" id="Layer_1" xmlns="http://www.w3.org/2000/svg" xmlns:xlink="http://www.w3.org/1999/xlink" x="0px" y="0px"
	 width="100%" viewBox="0 0 1183 427" enable-background="new 0 0 1183 427" xml:space="preserve">
<path fill="#000000" opacity="1.000000" stroke="none" 
	d="
M836.000000,428.000000 
	C557.333374,428.000000 279.166779,428.000000 1.000112,428.000000 
	C1.000075,285.666748 1.000075,143.333481 1.000037,1.000169 
	C395.333160,1.000113 789.666321,1.000113 1183.999634,1.000056 
	C1183.999756,143.333160 1183.999756,285.666321 1183.999878,427.999756 
	C1068.166626,428.000000 952.333313,428.000000 836.000000,428.000000 
M8.995809,5.051797 
	C11.328903,5.034392 13.661998,5.001801 15.995092,5.001757 
	C145.326965,4.999309 274.658813,4.999581 403.990692,4.999580 
	C405.949554,4.999580 407.908447,4.999580 409.867310,4.999580 
	C409.867279,4.666527 409.867249,4.333473 409.867188,4.000420 
	C407.905792,4.000420 405.944427,4.000419 403.983032,4.000419 
	C273.984497,4.000422 143.985977,4.000004 13.987440,4.004327 
	C11.988258,4.004394 9.989079,4.062997 7.268338,4.535368 
	C7.179111,6.193316 7.011904,7.851258 7.011758,9.509213 
	C6.999707,146.006683 7.000659,282.504181 7.000649,419.001648 
	C7.000649,420.634064 7.000650,422.266479 7.000650,423.898895 
	C7.333554,423.904358 7.666458,423.909851 7.999362,423.915314 
	C7.999362,421.993042 7.999363,420.070801 7.999362,418.148560 
	C7.999358,301.984039 7.995621,185.819519 8.002734,69.654999 
	C8.004050,48.155933 8.049200,26.656870 8.995809,5.051797 
M408.083069,216.500031 
	C408.083069,152.220551 408.083069,87.941063 408.083069,23.562613 
	C280.583649,23.562613 153.570282,23.562613 26.523703,23.562613 
	C26.523703,151.210754 26.523703,278.460266 26.523703,405.800720 
	C153.825180,405.800720 280.849396,405.800720 408.083069,405.800720 
	C408.083069,342.789703 408.083069,280.144867 408.083069,216.500031 
z"/>
<path fill="#FED600" opacity="1.000000" stroke="none" 
	d="
M408.083069,217.000031 
	C408.083069,280.144867 408.083069,342.789703 408.083069,405.800720 
	C280.849396,405.800720 153.825180,405.800720 26.523703,405.800720 
	C26.523703,278.460266 26.523703,151.210754 26.523703,23.562613 
	C153.570282,23.562613 280.583649,23.562613 408.083069,23.562613 
	C408.083069,87.941063 408.083069,152.220551 408.083069,217.000031 
M220.500000,353.999084 
	C230.799957,353.999084 241.099930,353.999084 251.437057,353.999084 
	C256.453339,337.418945 261.343201,321.256653 266.199066,305.206726 
	C278.590057,305.206726 290.554932,305.206726 302.739532,305.206726 
	C300.421997,321.491180 298.137543,337.543091 295.819702,353.829712 
	C315.143799,353.829712 333.932098,353.829712 353.118073,353.829712 
	C366.692688,253.310974 380.253479,152.894409 393.837677,52.304581 
	C359.577026,52.304581 325.496643,52.304581 291.454132,52.304581 
	C258.535553,152.926819 225.710342,253.263733 192.754761,353.999084 
	C202.182144,353.999084 210.841064,353.999084 220.500000,353.999084 
M236.854141,51.830978 
	C235.203079,51.718739 233.552078,51.509857 231.900925,51.508663 
	C204.080994,51.488533 176.260590,51.572243 148.441696,51.400822 
	C144.743713,51.378036 142.882965,52.532604 141.232620,55.813427 
	C109.573921,118.749771 77.852936,181.655045 45.969532,244.477783 
	C41.277489,253.722946 37.317005,263.069702 35.297359,273.298523 
	C33.157719,284.135101 30.430389,294.855621 27.825758,306.210907 
	C57.983162,306.210907 87.514442,306.210907 117.441452,306.210907 
	C113.803741,322.365723 110.286743,337.984436 106.710220,353.867493 
	C127.534073,353.867493 147.664719,353.867493 168.155182,353.867493 
	C171.821960,337.890289 175.480637,321.948486 179.185638,305.804810 
	C184.835968,305.804810 189.940582,305.804810 195.274521,305.804810 
	C199.100876,289.119415 202.862991,272.714081 206.766968,255.690216 
	C201.008408,255.690216 196.096863,255.690216 190.962265,255.690216 
	C191.106583,254.399445 191.116821,253.570816 191.299240,252.781982 
	C200.062790,214.886932 208.875214,177.003143 217.606873,139.100769 
	C224.249481,110.266640 230.791580,81.409363 236.854141,51.830978 
z"/>
<path fill="#706000" opacity="1.000000" stroke="none" 
	d="
M8.074119,5.157805 
	C8.049200,26.656870 8.004050,48.155933 8.002734,69.654999 
	C7.995621,185.819519 7.999358,301.984039 7.999362,418.148560 
	C7.999363,420.070801 7.999362,421.993042 7.999362,423.915314 
	C7.666458,423.909851 7.333554,423.904358 7.000650,423.898895 
	C7.000650,422.266479 7.000649,420.634064 7.000649,419.001648 
	C7.000659,282.504181 6.999707,146.006683 7.011758,9.509213 
	C7.011904,7.851258 7.179111,6.193316 7.650100,4.580687 
	C8.045947,4.803271 8.060033,4.980538 8.074119,5.157805 
z"/>
<path fill="#665600" opacity="1.000000" stroke="none" 
	d="
M8.534964,5.104801 
	C8.060033,4.980538 8.045947,4.803271 8.010880,4.360144 
	C9.989079,4.062997 11.988258,4.004394 13.987440,4.004327 
	C143.985977,4.000004 273.984497,4.000422 403.983032,4.000419 
	C405.944427,4.000419 407.905792,4.000420 409.867188,4.000420 
	C409.867249,4.333473 409.867279,4.666527 409.867310,4.999580 
	C407.908447,4.999580 405.949554,4.999580 403.990692,4.999580 
	C274.658813,4.999581 145.326965,4.999309 15.995092,5.001757 
	C13.661998,5.001801 11.328903,5.034392 8.534964,5.104801 
z"/>
<path fill="#010100" opacity="1.000000" stroke="none" 
	d="
M220.000000,353.999084 
	C210.841064,353.999084 202.182144,353.999084 192.754761,353.999084 
	C225.710342,253.263733 258.535553,152.926819 291.454132,52.304581 
	C325.496643,52.304581 359.577026,52.304581 393.837677,52.304581 
	C380.253479,152.894409 366.692688,253.310974 353.118073,353.829712 
	C333.932098,353.829712 315.143799,353.829712 295.819702,353.829712 
	C298.137543,337.543091 300.421997,321.491180 302.739532,305.206726 
	C290.554932,305.206726 278.590057,305.206726 266.199066,305.206726 
	C261.343201,321.256653 256.453339,337.418945 251.437057,353.999084 
	C241.099930,353.999084 230.799957,353.999084 220.000000,353.999084 
M326.002289,140.598969 
	C327.743225,128.209091 329.484161,115.819214 331.314789,102.791222 
	C327.616119,104.853386 285.278656,240.587738 282.513367,256.727234 
	C291.440399,256.727234 300.367401,256.727234 309.512695,256.727234 
	C315.009094,218.150696 320.471039,179.816071 326.002289,140.598969 
z"/>
<path fill="#010100" opacity="1.000000" stroke="none" 
	d="
M237.116272,52.196682 
	C230.791580,81.409363 224.249481,110.266640 217.606873,139.100769 
	C208.875214,177.003143 200.062790,214.886932 191.299240,252.781982 
	C191.116821,253.570816 191.106583,254.399445 190.962265,255.690216 
	C196.096863,255.690216 201.008408,255.690216 206.766968,255.690216 
	C202.862991,272.714081 199.100876,289.119415 195.274521,305.804810 
	C189.940582,305.804810 184.835968,305.804810 179.185638,305.804810 
	C175.480637,321.948486 171.821960,337.890289 168.155182,353.867493 
	C147.664719,353.867493 127.534073,353.867493 106.710220,353.867493 
	C110.286743,337.984436 113.803741,322.365723 117.441452,306.210907 
	C87.514442,306.210907 57.983162,306.210907 27.825758,306.210907 
	C30.430389,294.855621 33.157719,284.135101 35.297359,273.298523 
	C37.317005,263.069702 41.277489,253.722946 45.969532,244.477783 
	C77.852936,181.655045 109.573921,118.749771 141.232620,55.813427 
	C142.882965,52.532604 144.743713,51.378036 148.441696,51.400822 
	C176.260590,51.572243 204.080994,51.488533 231.900925,51.508663 
	C233.552078,51.509857 235.203079,51.718739 237.116272,52.196682 
M156.228302,120.705315 
	C135.346970,165.492661 114.465630,210.280014 93.223915,255.840347 
	C104.428741,255.840347 114.689713,255.702332 124.943176,255.919296 
	C128.284454,255.989975 129.393326,254.844437 130.121719,251.650696 
	C137.918243,217.466003 145.914490,183.326920 153.824951,149.168137 
	C156.966629,135.601807 160.031052,122.017578 163.130646,108.441498 
	C162.840103,108.329514 162.549561,108.217537 162.259018,108.105553 
	C160.378052,112.090866 158.497086,116.076172 156.228302,120.705315 
z"/>
<path fill="#FBD300" opacity="1.000000" stroke="none" 
	d="
M325.967651,141.040192 
	C320.471039,179.816071 315.009094,218.150696 309.512695,256.727234 
	C300.367401,256.727234 291.440399,256.727234 282.511963,256.728882 
	C285.278656,240.587738 327.616119,104.853386 331.314789,102.791222 
	C329.484161,115.819214 327.743225,128.209091 325.967651,141.040192 
z"/>
<path fill="#FBD300" opacity="1.000000" stroke="none" 
	d="
M156.422211,120.383392 
	C158.497086,116.076172 160.378052,112.090866 162.259018,108.105553 
	C162.549561,108.217537 162.840103,108.329514 163.130646,108.441498 
	C160.031052,122.017578 156.966629,135.601807 153.824951,149.168137 
	C145.914490,183.326920 137.918243,217.466003 130.121719,251.650696 
	C129.393326,254.844437 128.284454,255.989975 124.943176,255.919296 
	C114.689713,255.702332 104.428741,255.840347 93.223915,255.840347 
	C114.465630,210.280014 135.346970,165.492661 156.422211,120.383392 
z"/>
</svg>